<svg xmlns="http://www.w3.org/2000/svg" viewBox="0 0 1200 760" role="img" aria-label="Home workout scene">
  <defs>
    <linearGradient id="bg" x1="0" y1="0" x2="1" y2="1"><stop stop-color="#f8fbf5"/><stop offset="0.52" stop-color="#dcefe2"/><stop offset="1" stop-color="#f8d8cf"/></linearGradient>
    <linearGradient id="mat" x1="0" y1="0" x2="1" y2="0"><stop stop-color="#2f7667"/><stop offset="1" stop-color="#78b66d"/></linearGradient>
    <filter id="soft" x="-20%" y="-20%" width="140%" height="140%"><feDropShadow dx="0" dy="18" stdDeviation="22" flood-color="#1d3128" flood-opacity="0.18"/></filter>
  </defs>
  <rect width="1200" height="760" rx="42" fill="url(#bg)"/>
  <path d="M0 563c164-80 297-95 468-38 183 61 307 37 459-33 103-48 194-63 273-51v319H0z" fill="#ffffff" opacity="0.72"/>
  <g opacity="0.72"><circle cx="1028" cy="152" r="70" fill="#ff846f"/><circle cx="1033" cy="152" r="42" fill="#fff3ed"/></g>
  <g transform="translate(108 104)">
    <rect x="0" y="346" width="460" height="92" rx="46" fill="url(#mat)" filter="url(#soft)"/>
    <g transform="translate(168 32)" stroke="#1f2a2e" stroke-width="28" stroke-linecap="round" stroke-linejoin="round" fill="none">
      <path d="M113 127l-53 145 87 83"/>
      <path d="M144 130l97 81 93-19"/>
      <path d="M82 282l-42 95"/>
      <path d="M150 356l73 78"/>
      <path d="M240 211l48 128"/>
    </g>
    <circle cx="301" cy="118" r="43" fill="#253036"/>
    <path d="M266 164c46 26 102 21 135-18 7 56-19 112-76 130-61 20-118-13-135-67 18-17 43-34 76-45z" fill="#2f7667"/>
    <g transform="translate(470 294)" fill="#252f35"><rect x="0" y="72" width="150" height="28" rx="14"/><circle cx="24" cy="86" r="34"/><circle cx="126" cy="86" r="34"/><rect x="230" y="50" width="42" height="118" rx="21"/><rect x="290" y="50" width="42" height="118" rx="21"/></g>
  </g>
  <g transform="translate(790 262)"><rect x="0" y="0" width="248" height="330" rx="30" fill="#ffffff" opacity="0.76"/><rect x="42" y="58" width="164" height="14" rx="7" fill="#2f7667"/><rect x="42" y="102" width="120" height="14" rx="7" fill="#ff846f"/><rect x="42" y="146" width="164" height="14" rx="7" fill="#2f7667" opacity="0.5"/><circle cx="124" cy="245" r="48" fill="#f8d8cf"/><path d="M95 244h58" stroke="#253036" stroke-width="18" stroke-linecap="round"/></g>
</svg>
