<svg xmlns="http://www.w3.org/2000/svg" viewBox="0 0 900 650" role="img" aria-label="Upper body strength exercise">
  <defs><linearGradient id="b" x1="0" y1="0" x2="1" y2="1"><stop stop-color="#eef7ff"/><stop offset="1" stop-color="#f4eadb"/></linearGradient></defs>
  <rect width="900" height="650" rx="34" fill="url(#b)"/><ellipse cx="446" cy="550" rx="276" ry="48" fill="#d8e8e0"/>
  <g stroke="#253036" stroke-width="34" stroke-linecap="round" stroke-linejoin="round" fill="none"><path d="M449 179l-2 186"/><path d="M445 205l-113-104"/><path d="M452 205l116-104"/><path d="M447 365l-88 145"/><path d="M447 365l89 145"/></g>
  <circle cx="449" cy="119" r="48" fill="#253036"/><path d="M398 194c39 25 98 27 144 0 18 87-18 154-94 176-73-22-107-89-50-176z" fill="#557cc5"/>
  <g fill="#253036"><rect x="260" y="58" width="98" height="48" rx="24"/><rect x="542" y="58" width="98" height="48" rx="24"/></g>
  <circle cx="217" cy="453" r="44" fill="#ff846f" opacity="0.36"/><circle cx="700" cy="443" r="54" fill="#78b66d" opacity="0.30"/>
</svg>
